<svg xmlns="http://www.w3.org/2000/svg" viewBox="0 0 147.06 147.06" width="147.05999755859375" height="147.05999755859375"><defs><style>.cls-1{isolation:isolate;}.cls-2{fill:#231f20;}.cls-3,.cls-7,.cls-8{fill:none;}.cls-3{stroke:#fff;stroke-miterlimit:10;stroke-width:2.5px;}.cls-4{opacity:0.75;mix-blend-mode:multiply;}.cls-5,.cls-6{font-size:68.26px;}.cls-10,.cls-11,.cls-5,.cls-6{font-family:SakkalMajalla, Sakkal Majalla;}.cls-6{fill:#fff;}.cls-7{stroke:#000;}.cls-7,.cls-8{stroke-linecap:round;stroke-linejoin:round;stroke-width:2px;}.cls-8{stroke:#b3c93c;}.cls-11,.cls-9{fill:#b3c93c;}.cls-10,.cls-11{font-size:35.68px;}</style></defs><g class="cls-1"><g id="Layer_2" data-name="Layer 2"><g id="Layer_1-2" data-name="Layer 1"><circle class="cls-2 svg-elem-1" cx="73.53" cy="73.53" r="73.53"></circle><circle class="cls-3 svg-elem-2" cx="73.53" cy="73.53" r="69.21"></circle><g class="cls-1"><g class="cls-4"><text class="cls-5" transform="translate(19.03 83.89)">Kool</text></g><text class="cls-6" transform="translate(18.03 82.89)">Kool</text></g><g class="cls-4"><path class="cls-7 svg-elem-3" d="M70.81,91.47C76.44,97,84.35,96.36,88,91.63"></path></g><path class="cls-8 svg-elem-4" d="M69.81,90.47C75.44,96,83.35,95.36,87,90.63"></path><g class="cls-4"><path d="M79.05,53a5.42,5.42,0,0,1-.13-2.23,8.32,8.32,0,0,1,.69-2.17A12.87,12.87,0,0,1,82.35,45a16.09,16.09,0,0,1,3.76-2.68,11.18,11.18,0,0,1,2.27-.82,15.11,15.11,0,0,1,2.32-.35H93l2.22.08c1.47.08,2.89.16,4.28.13a14.68,14.68,0,0,0,4-.63,9.06,9.06,0,0,0,3.58-2c.8-.83,1.56-1.7,2.33-2.55a5.47,5.47,0,0,0-.3,1.69,27,27,0,0,1-1.66,5.56,27.44,27.44,0,0,1-1.65,3.41l-.25.44-.25.37-.52.78c-.34.5-.7,1-1.09,1.56a12.69,12.69,0,0,1-2.86,2.71,14.67,14.67,0,0,1-1.69,1c-.59.27-1.17.5-1.75.72a24.74,24.74,0,0,1-10.9,1.39,30.53,30.53,0,0,0,7-1.56,26.89,26.89,0,0,0,3.28-1.35A15.81,15.81,0,0,0,99.66,51a10.69,10.69,0,0,0,2.23-2.42c.31-.47.62-1,.92-1.46l.45-.78.24-.37.19-.38a27.25,27.25,0,0,0,1.4-3.12c.42-1.1.75.17-.83.69a15.8,15.8,0,0,1-4.68.65c-1.56,0-3.13-.14-4.5-.26s-2.89-.27-4.27-.29a12.53,12.53,0,0,0-2,.15,8.41,8.41,0,0,0-1.9.54A15,15,0,0,0,83.25,46a13.54,13.54,0,0,0-2.94,3A6.46,6.46,0,0,0,79.05,53Z" class="svg-elem-5"></path></g><path class="cls-9 svg-elem-6" d="M78.05,52a5.42,5.42,0,0,1-.13-2.23,8.32,8.32,0,0,1,.69-2.17A12.87,12.87,0,0,1,81.35,44a16.09,16.09,0,0,1,3.76-2.68,11.18,11.18,0,0,1,2.27-.82,15.11,15.11,0,0,1,2.32-.35H92l2.22.08c1.47.08,2.89.16,4.28.13a14.68,14.68,0,0,0,4-.63,9.06,9.06,0,0,0,3.58-2c.8-.83,1.56-1.7,2.33-2.55a5.47,5.47,0,0,0-.3,1.69,27,27,0,0,1-1.66,5.56,27.44,27.44,0,0,1-1.65,3.41l-.25.44-.25.37-.52.78c-.34.5-.7,1-1.09,1.56a12.69,12.69,0,0,1-2.86,2.71,14.67,14.67,0,0,1-1.69,1c-.59.27-1.17.5-1.75.72a24.74,24.74,0,0,1-10.9,1.39,30.53,30.53,0,0,0,7-1.56,26.89,26.89,0,0,0,3.28-1.35A15.81,15.81,0,0,0,98.66,50a10.69,10.69,0,0,0,2.23-2.42c.31-.47.62-1,.92-1.46l.45-.78.24-.37.19-.38a27.25,27.25,0,0,0,1.4-3.12c.42-1.1.75.17-.83.69a15.8,15.8,0,0,1-4.68.65c-1.56,0-3.13-.14-4.5-.26s-2.89-.27-4.27-.29a12.53,12.53,0,0,0-2,.15,8.41,8.41,0,0,0-1.9.54A15,15,0,0,0,82.25,45a13.54,13.54,0,0,0-2.94,3A6.46,6.46,0,0,0,78.05,52Z"></path><g class="cls-4"><path d="M76.67,60c-.57-1.7-1.15-3.28-1.76-4.86s-1.22-3.12-1.86-4.68-1.31-3-2-4.53c-.17-.39-.37-.75-.56-1.11l-.59-1.11c-.21-.38-.44-.72-.66-1.1a6.18,6.18,0,0,0-.36-.53c-.12-.18-.26-.36-.39-.56a7.73,7.73,0,0,1,2.36,1.36,11.14,11.14,0,0,1,1,.92c.31.33.61.67.89,1a18.92,18.92,0,0,1,2.71,4.69,20.83,20.83,0,0,1,1.47,5.12A12.75,12.75,0,0,1,76.67,60Z" class="svg-elem-7"></path></g><path class="cls-9 svg-elem-8" d="M75.67,59c-.57-1.7-1.15-3.28-1.76-4.86s-1.22-3.12-1.86-4.68-1.31-3-2-4.53c-.17-.39-.37-.75-.56-1.11l-.59-1.11c-.21-.38-.44-.72-.66-1.1a6.18,6.18,0,0,0-.36-.53c-.12-.18-.26-.36-.39-.56a7.73,7.73,0,0,1,2.36,1.36,11.14,11.14,0,0,1,1,.92c.31.33.61.67.89,1a18.92,18.92,0,0,1,2.71,4.69,20.83,20.83,0,0,1,1.47,5.12A12.75,12.75,0,0,1,75.67,59Z"></path><g class="cls-4"><path d="M77.42,45.79a9.52,9.52,0,0,0-2.29-4.2,13.15,13.15,0,0,0-3.72-2.73A21.71,21.71,0,0,0,67,37.3c-1.56-.41-3.13-.72-4.69-1L63.86,35v9.55a8.5,8.5,0,0,0,.1,1.56,13,13,0,0,0,.29,1.41,11.45,11.45,0,0,0,3,5,12.45,12.45,0,0,0,5.3,3.13,10.75,10.75,0,0,1-6.25-2.13,11.73,11.73,0,0,1-4.12-5.45,10,10,0,0,1-.49-1.7,12.47,12.47,0,0,1-.23-1.72c-.1-1.12-.1-2.19-.13-3.26v-8l1.56.33c1.57.37,3.27.76,4.89,1.31a20.19,20.19,0,0,1,4.69,2.23,12.47,12.47,0,0,1,3.67,3.74A8.45,8.45,0,0,1,77.42,45.79Z" class="svg-elem-9"></path></g><path class="cls-9 svg-elem-10" d="M76.42,44.79a9.52,9.52,0,0,0-2.29-4.2,13.15,13.15,0,0,0-3.72-2.73A21.71,21.71,0,0,0,66,36.3c-1.56-.41-3.13-.72-4.69-1L62.86,34v9.55a8.5,8.5,0,0,0,.1,1.56,13,13,0,0,0,.29,1.41,11.45,11.45,0,0,0,3,5,12.45,12.45,0,0,0,5.3,3.13,10.75,10.75,0,0,1-6.25-2.13,11.73,11.73,0,0,1-4.12-5.45,10,10,0,0,1-.49-1.7,12.47,12.47,0,0,1-.23-1.72c-.1-1.12-.1-2.19-.13-3.26v-8l1.56.33c1.57.37,3.27.76,4.89,1.31a20.19,20.19,0,0,1,4.69,2.23,12.47,12.47,0,0,1,3.67,3.74A8.45,8.45,0,0,1,76.42,44.79Z"></path><g class="cls-4"><path d="M76.67,60.32a8.19,8.19,0,0,1,.94-3.12,13,13,0,0,1,1.86-2.72,20.25,20.25,0,0,1,5.09-4.12c1-.55,1.91-1,2.88-1.46s2-.81,3-1.14,2.07-.59,3.12-.81a20,20,0,0,1,3.19-.28A31.12,31.12,0,0,1,94,48.37l-2.73,1.56c-.93.54-1.83,1-2.75,1.43L85.8,52.72a33.8,33.8,0,0,0-5,3.23A15.73,15.73,0,0,0,76.67,60.32Z" class="svg-elem-11"></path></g><path class="cls-9 svg-elem-12" d="M75.67,59.32a8.19,8.19,0,0,1,.94-3.12,13,13,0,0,1,1.86-2.72,20.25,20.25,0,0,1,5.09-4.12c1-.55,1.91-1,2.88-1.46s2-.81,3-1.14,2.07-.59,3.12-.81a20,20,0,0,1,3.19-.28A31.12,31.12,0,0,1,93,47.37l-2.73,1.56c-.93.54-1.83,1-2.75,1.43L84.8,51.72a33.8,33.8,0,0,0-5,3.23A15.73,15.73,0,0,0,75.67,59.32Z"></path><g class="cls-4"><text class="cls-10" transform="translate(94.11 105.18)">Bio</text></g><text class="cls-11" transform="translate(93.11 104.18)">Bio</text></g></g></g></svg>