<svg xmlns="http://www.w3.org/2000/svg" viewBox="0 0 100 100" id="logo"><defs><style>.cls-1{isolation:isolate;}.cls-2{fill:#231f20;}.cls-3,.cls-7,.cls-8{fill:none;stroke-width:2px;}.cls-3{stroke:#fff;stroke-miterlimit:10;}.cls-4{opacity:0.75;mix-blend-mode:multiply;}.cls-5,.cls-6{font-size:46.42px;}.cls-10,.cls-11,.cls-5,.cls-6{font-family:SakkalMajalla, Sakkal Majalla;}.cls-6{fill:#fff;}.cls-7{stroke:#000;}.cls-7,.cls-8{stroke-linecap:round;stroke-linejoin:round;}.cls-8{stroke:#b3c93c;}.cls-11,.cls-9{fill:#b3c93c;}.cls-10,.cls-11{font-size:24.26px;}</style></defs><g class="cls-1"><g id="Layer_2" data-name="Layer 2"><g id="Layer_1-2" data-name="Layer 1"><circle class="cls-2" cx="50" cy="50" r="50"/><circle class="cls-3" cx="50" cy="50" r="47.06"/><g class="cls-1"><g class="cls-4"><text class="cls-5" transform="translate(13.26 57.36)">Kool</text></g><text class="cls-6" transform="translate(12.26 56.36)">Kool</text></g><g class="cls-4"><path class="cls-7" d="M48.47,62.52c3.83,3.76,9.21,3.33,11.71.11"/></g><path class="cls-8" d="M47.47,61.52c3.83,3.76,9.21,3.33,11.71.11"/><g class="cls-4"><path d="M54.07,36.37A3.71,3.71,0,0,1,54,34.85a5.55,5.55,0,0,1,.47-1.48,8.79,8.79,0,0,1,1.85-2.47,11,11,0,0,1,2.57-1.82,7.45,7.45,0,0,1,1.54-.56A10.58,10.58,0,0,1,62,28.28h1.56l1.51.06c1,.05,2,.1,2.91.08A10.27,10.27,0,0,0,70.67,28a6.2,6.2,0,0,0,2.43-1.38c.54-.57,1.06-1.16,1.58-1.74a4.08,4.08,0,0,0-.2,1.15,18.29,18.29,0,0,1-1.13,3.78,18.34,18.34,0,0,1-1.12,2.32l-.17.3-.17.25-.35.53c-.24.34-.48.7-.75,1.07a8.23,8.23,0,0,1-1.94,1.83,10,10,0,0,1-1.15.65c-.4.18-.79.34-1.19.49a16.86,16.86,0,0,1-2.43.69,16.34,16.34,0,0,1-5,.26,21.11,21.11,0,0,0,4.77-1.07,18,18,0,0,0,2.23-.91,11.2,11.2,0,0,0,2-1.2,7,7,0,0,0,1.51-1.65q.33-.48.63-1l.31-.53.16-.25.13-.26a17.56,17.56,0,0,0,1-2.12c.29-.75.51.12-.56.47a10.42,10.42,0,0,1-3.19.44C67,30.13,65.91,30,65,30s-2-.18-2.9-.19a8,8,0,0,0-1.38.1,5.77,5.77,0,0,0-1.29.37,9.69,9.69,0,0,0-2.47,1.39,8.85,8.85,0,0,0-2,2.05A4.37,4.37,0,0,0,54.07,36.37Z"/></g><path class="cls-9" d="M53.07,35.37A3.71,3.71,0,0,1,53,33.85a5.55,5.55,0,0,1,.47-1.48,8.79,8.79,0,0,1,1.85-2.47,11,11,0,0,1,2.57-1.82,7.45,7.45,0,0,1,1.54-.56A10.58,10.58,0,0,1,61,27.28h1.56l1.51.06c1,.05,2,.1,2.91.08A10.27,10.27,0,0,0,69.67,27a6.2,6.2,0,0,0,2.43-1.38c.54-.57,1.06-1.16,1.58-1.74a4.08,4.08,0,0,0-.2,1.15,18.29,18.29,0,0,1-1.13,3.78,18.34,18.34,0,0,1-1.12,2.32l-.17.3-.17.25-.35.53c-.24.34-.48.7-.75,1.07a8.23,8.23,0,0,1-1.94,1.83,10,10,0,0,1-1.15.65c-.4.18-.79.34-1.19.49a16.86,16.86,0,0,1-2.43.69,16.34,16.34,0,0,1-5,.26,21.11,21.11,0,0,0,4.77-1.07,18,18,0,0,0,2.23-.91,11.2,11.2,0,0,0,2-1.2,7,7,0,0,0,1.51-1.65q.33-.48.63-1l.31-.53.16-.25.13-.26a17.56,17.56,0,0,0,1-2.12c.29-.75.51.12-.56.47a10.42,10.42,0,0,1-3.19.44C66,29.13,64.91,29,64,29s-2-.18-2.9-.19a8,8,0,0,0-1.38.1,5.77,5.77,0,0,0-1.29.37,9.69,9.69,0,0,0-2.47,1.39,8.85,8.85,0,0,0-2,2.05A4.37,4.37,0,0,0,53.07,35.37Z"/><g class="cls-4"><path d="M52.46,41.15c-.39-1.16-.79-2.23-1.2-3.31s-.83-2.12-1.27-3.18-.89-2.07-1.39-3.08c-.11-.27-.25-.51-.38-.76l-.4-.75c-.14-.26-.3-.49-.45-.75L47.13,29c-.09-.12-.18-.24-.27-.38a4.94,4.94,0,0,1,1.6.93,5.86,5.86,0,0,1,.69.62,8,8,0,0,1,.61.7A12.71,12.71,0,0,1,51.61,34a14.58,14.58,0,0,1,1,3.48A9,9,0,0,1,52.46,41.15Z"/></g><path class="cls-9" d="M51.46,40.15c-.39-1.16-.79-2.23-1.2-3.31s-.83-2.12-1.27-3.18-.89-2.07-1.39-3.08c-.11-.27-.25-.51-.38-.76l-.4-.75c-.14-.26-.3-.49-.45-.75L46.13,28c-.09-.12-.18-.24-.27-.38a4.94,4.94,0,0,1,1.6.93,5.86,5.86,0,0,1,.69.62,8,8,0,0,1,.61.7A12.71,12.71,0,0,1,50.61,33a14.58,14.58,0,0,1,1,3.48A9,9,0,0,1,51.46,40.15Z"/><g class="cls-4"><path d="M53,31.46a6.58,6.58,0,0,0-1.56-2.86,9.25,9.25,0,0,0-2.53-1.86,15.15,15.15,0,0,0-3-1.06c-1.06-.28-2.12-.49-3.18-.7l1.06-.85v6.49a6.52,6.52,0,0,0,.06,1.06,9.59,9.59,0,0,0,.2,1,7.83,7.83,0,0,0,2,3.43,8.53,8.53,0,0,0,3.6,2.13,7.33,7.33,0,0,1-4.25-1.45A8,8,0,0,1,42.58,33a7.56,7.56,0,0,1-.33-1.15,9.39,9.39,0,0,1-.16-1.17C42,30,42,29.23,42,28.5V23.08l1.06.22c1.06.26,2.22.52,3.32.89a13.75,13.75,0,0,1,3.19,1.52,8.65,8.65,0,0,1,2.5,2.54A5.87,5.87,0,0,1,53,31.46Z"/></g><path class="cls-9" d="M52,30.46a6.58,6.58,0,0,0-1.56-2.86,9.25,9.25,0,0,0-2.53-1.86,15.15,15.15,0,0,0-3-1.06c-1.06-.28-2.12-.49-3.18-.7l1.06-.85v6.49a6.52,6.52,0,0,0,.06,1.06,9.59,9.59,0,0,0,.2,1,7.83,7.83,0,0,0,2,3.43,8.53,8.53,0,0,0,3.6,2.13,7.33,7.33,0,0,1-4.25-1.45A8,8,0,0,1,41.58,32a7.56,7.56,0,0,1-.33-1.15,9.39,9.39,0,0,1-.16-1.17C41,29,41,28.23,41,27.5V22.08l1.06.22c1.06.26,2.22.52,3.32.89a13.75,13.75,0,0,1,3.19,1.52,8.65,8.65,0,0,1,2.5,2.54A5.87,5.87,0,0,1,52,30.46Z"/><g class="cls-4"><path d="M52.46,41.34a5.28,5.28,0,0,1,.64-2.12,8.64,8.64,0,0,1,1.26-1.85,13.77,13.77,0,0,1,3.46-2.81c.65-.37,1.3-.69,2-1a21.49,21.49,0,0,1,2-.77,18.83,18.83,0,0,1,2.12-.55,14.35,14.35,0,0,1,2.17-.2,20.85,20.85,0,0,1-1.85,1.16l-1.86,1.07c-.63.36-1.24.64-1.87,1l-1.85.93a23,23,0,0,0-3.43,2.2A10.46,10.46,0,0,0,52.46,41.34Z"/></g><path class="cls-9" d="M51.46,40.34a5.28,5.28,0,0,1,.64-2.12,8.64,8.64,0,0,1,1.26-1.85,13.77,13.77,0,0,1,3.46-2.81c.65-.37,1.3-.69,2-1a21.49,21.49,0,0,1,2-.77,18.83,18.83,0,0,1,2.12-.55,14.35,14.35,0,0,1,2.17-.2,20.85,20.85,0,0,1-1.85,1.16l-1.86,1.07c-.63.36-1.24.64-1.87,1l-1.85.93a23,23,0,0,0-3.43,2.2A10.46,10.46,0,0,0,51.46,40.34Z"/><g class="cls-4"><text class="cls-10" transform="translate(64.31 71.84)">Bio</text></g><text class="cls-11" transform="translate(63.31 70.84)">Bio</text></g></g></g></svg>